<svg width="70" height="70" viewBox="0 0 70 70" fill="none" xmlns="http://www.w3.org/2000/svg">
<g clip-path="url(#clip0_138_192)">
<path d="M64.1364 39.919C65.7841 38.4826 66.8266 36.3817 66.8266 34.0431C66.8266 30.4564 64.3766 27.4273 61.0462 26.5025V14.4245H62.3529C63.611 14.4245 64.6345 13.401 64.6345 12.1429V2.41828C64.6345 1.1602 63.6111 0.136719 62.353 0.136719H40.187C38.9289 0.136719 37.9054 1.1602 37.9054 2.41828V9.42799H12.6528C10.6131 9.42799 8.95371 11.0873 8.95371 13.1271V26.5028C5.62324 27.4276 3.17324 30.4567 3.17324 34.0434C3.17324 36.3818 4.21572 38.4828 5.86346 39.9191C2.47037 41.3886 0.136719 44.7721 0.136719 48.6235V63.0995C0.136719 63.983 0.855449 64.7017 1.73906 64.7017H16.2773C16.3145 64.9641 16.406 65.2203 16.5535 65.4411C16.7651 65.7575 17.0704 65.9798 17.4256 66.0919V68.216C17.4256 69.1245 18.1646 69.8634 19.073 69.8634H50.9268C51.8351 69.8634 52.5741 69.1245 52.5741 68.216V66.0919C52.9293 65.9797 53.2346 65.7575 53.4461 65.4411C53.5938 65.2203 53.6851 64.9641 53.7223 64.7017H68.2609C69.1444 64.7017 69.8633 63.983 69.8633 63.0995V48.6235C69.8633 44.7736 67.5292 41.389 64.1364 39.919ZM64.6393 34.0432C64.6393 37.1559 62.0694 39.6882 58.9105 39.6882C55.7516 39.6882 53.1817 37.1559 53.1817 34.0432C53.1817 30.9304 55.7516 28.3981 58.9105 28.3981C62.0694 28.3981 64.6393 30.9304 64.6393 34.0432ZM40.0929 2.41828C40.0929 2.36824 40.1368 2.32422 40.187 2.32422H62.353C62.4031 2.32422 62.4471 2.36811 62.4471 2.41828V12.1432C62.4471 12.1933 62.4032 12.2373 62.353 12.2373H46.8809C46.652 12.2373 46.4289 12.3091 46.2429 12.4426L42.9455 14.8102V13.3309C42.9455 12.7269 42.4558 12.2371 41.8518 12.2371H40.1868C40.1367 12.2371 40.0928 12.1933 40.0928 12.1431V2.41828H40.0929ZM12.6528 11.6154H37.9054V12.1431C37.9054 13.401 38.9289 14.4246 40.187 14.4246H40.7582V16.9419C40.7582 17.3521 40.9877 17.7278 41.3526 17.9151C41.51 17.9959 41.6813 18.0357 41.8518 18.0357C42.0767 18.0357 42.3004 17.9663 42.4899 17.8303L47.2329 14.4246H58.8588V26.212C54.5176 26.2397 50.994 29.7415 50.994 34.0434C50.994 36.3824 52.0369 38.4836 53.6854 39.9201C52.7231 40.337 51.831 40.9142 51.0411 41.6388H18.9588C18.1686 40.9139 17.2766 40.337 16.3146 39.9201C17.9629 38.4837 19.006 36.3824 19.006 34.0434C19.006 29.7417 15.4826 26.2397 11.1413 26.212V13.1269C11.1412 12.2935 11.8193 11.6154 12.6528 11.6154ZM41.783 57.2033H48.5252L51.3283 63.9883H18.6717L21.4747 57.2033H28.217C30.3707 57.2033 32.123 55.4511 32.123 53.2972C32.123 51.1435 30.3708 49.3913 28.217 49.3913H24.7021L25.1621 48.2777C25.1887 48.2133 25.2261 48.1884 25.2957 48.1884H44.7057C44.7735 48.1887 44.812 48.2146 44.8381 48.2777L45.2982 49.3913H41.7834C39.6297 49.3913 37.8774 51.1435 37.8774 53.2972C37.877 55.4511 39.6293 57.2033 41.783 57.2033ZM22.1003 49.3913C22.0355 49.095 21.9721 48.789 21.9067 48.474C21.8872 48.3796 21.8672 48.2839 21.8472 48.1884H22.832L22.3351 49.3913H22.1003ZM47.8997 49.3913H47.6648L47.1678 48.1884H48.1525C48.1327 48.2837 48.1127 48.3794 48.093 48.4739C48.0279 48.7888 47.9645 49.095 47.8997 49.3913ZM48.6655 46.0009H44.7079C44.7066 46.0009 44.7055 46.0008 44.7043 46.0008L21.3346 46.0009C21.1267 45.2525 20.873 44.5159 20.539 43.8262H49.4609C49.127 44.516 48.8733 45.2525 48.6655 46.0009ZM5.36074 34.0432C5.36074 30.9304 7.93064 28.3981 11.0895 28.3981C14.2484 28.3981 16.8183 30.9304 16.8183 34.0432C16.8183 37.1559 14.2484 39.6882 11.0895 39.6882C7.93064 39.6882 5.36074 37.1559 5.36074 34.0432ZM2.32422 48.6235C2.32422 45.0475 4.93979 41.9964 8.44703 41.4254C9.27404 41.716 10.1631 41.8757 11.0895 41.8757C12.0165 41.8757 12.906 41.7159 13.7334 41.425C15.1368 41.6545 16.4304 42.2846 17.4885 43.2579C18.8516 44.5115 19.3159 46.7517 19.7649 48.918C19.8979 49.5593 20.0234 50.1651 20.173 50.7544C20.2962 51.2393 20.7327 51.5788 21.2331 51.5788H28.217C29.1646 51.5788 29.9355 52.3497 29.9355 53.2972C29.9355 54.2449 29.1646 55.0158 28.217 55.0158H19.0474C18.2435 55.0158 17.5372 54.4467 17.3678 53.6628C17.3649 53.6499 17.3621 53.6371 17.3588 53.6244L15.756 47.3147C15.6073 46.7294 15.0123 46.3746 14.4266 46.5239C13.8411 46.6726 13.487 47.2678 13.6358 47.8533L15.234 54.1457C15.6274 55.9188 17.2275 57.2034 19.0472 57.2034H19.1077L16.9137 62.5142H2.32422V48.6235ZM19.6133 67.6758V66.1758H50.3869V67.6758H19.6133ZM67.6758 62.5141H53.086L50.8921 57.2033H50.9526C52.7725 57.2033 54.3726 55.9185 54.7658 54.1453L56.3642 47.8532C56.5128 47.2678 56.1589 46.6725 55.5734 46.5238C54.9879 46.375 54.3927 46.729 54.244 47.3145L52.6412 53.6242C52.6381 53.6371 52.6351 53.6499 52.6322 53.6627C52.463 54.4466 51.7567 55.0156 50.9526 55.0156H41.783C40.8354 55.0156 40.0645 54.2447 40.0645 53.2971C40.0645 52.3495 40.8354 51.5787 41.783 51.5787H48.7669C49.2673 51.5787 49.7038 51.2392 49.827 50.7542C49.9767 50.165 50.1022 49.5592 50.2351 48.9177C50.6841 46.7514 51.1485 44.5114 52.5116 43.2577C53.5693 42.2846 54.8637 41.6545 56.2674 41.4251C57.0946 41.7159 57.9838 41.8756 58.9105 41.8756C59.8369 41.8756 60.726 41.7159 61.5528 41.4252C65.0597 41.9964 67.6758 45.0488 67.6758 48.6235V62.5141ZM25.4327 39.8647H44.5673C45.0714 39.8647 45.5562 39.6536 45.8977 39.2856C46.2391 38.9177 46.4133 38.4182 46.3754 37.9158C46.0391 33.4338 43.0898 29.6893 39.1002 28.1356C40.6615 26.9142 41.6679 25.0145 41.6679 22.8832C41.6679 19.2064 38.6768 16.2153 35 16.2153C31.3232 16.2153 28.3321 19.2065 28.3321 22.8832C28.3321 25.0146 29.3386 26.9142 30.8998 28.1356C26.9102 29.6893 23.9609 33.4338 23.6246 37.9158C23.5869 38.4184 23.761 38.9177 24.1024 39.2857C24.4439 39.6536 24.9288 39.8647 25.4327 39.8647ZM30.5196 22.8832C30.5196 20.4127 32.5295 18.4028 35 18.4028C37.4705 18.4028 39.4804 20.4127 39.4804 22.8832C39.4804 25.3528 37.4719 27.3621 35.0027 27.3636C35.0018 27.3636 35.001 27.3636 35 27.3636C34.999 27.3636 34.9982 27.3636 34.9973 27.3636C32.528 27.3621 30.5196 25.3528 30.5196 22.8832ZM34.9973 29.5511H35C35 29.5511 35.0018 29.5511 35.0027 29.5511C39.6631 29.5524 43.607 33.0894 44.155 37.6772H25.845C26.393 33.0895 30.3369 29.5524 34.9973 29.5511ZM42.4189 5.09428C42.4189 4.49025 42.9086 4.00053 43.5127 4.00053H59.0274C59.6314 4.00053 60.1211 4.49025 60.1211 5.09428C60.1211 5.6983 59.6314 6.18803 59.0274 6.18803H43.5127C42.9086 6.18803 42.4189 5.6983 42.4189 5.09428ZM42.4189 9.46709C42.4189 8.86307 42.9086 8.37334 43.5127 8.37334H59.0274C59.6314 8.37334 60.1211 8.86307 60.1211 9.46709C60.1211 10.0711 59.6314 10.5608 59.0274 10.5608H43.5127C42.9086 10.5608 42.4189 10.0711 42.4189 9.46709Z" fill="white"/>
</g>
<defs>
<clipPath id="clip0_138_192">
<rect width="70" height="70" fill="white"/>
</clipPath>
</defs>
</svg>
