<svg width="70" height="70" viewBox="0 0 70 70" fill="none" xmlns="http://www.w3.org/2000/svg">
<g clip-path="url(#clip0_138_196)">
<path d="M62.8502 47.0534C65.1239 45.3132 66.4697 42.623 66.499 39.7598C66.5281 36.8967 65.2374 34.1796 62.9996 32.3935V16.1201C64.6056 15.5545 65.5693 13.913 65.2808 12.2349C64.9924 10.5569 63.5357 9.33164 61.833 9.33492H55.0327L36.0502 2.63368C35.6611 1.08552 34.2692 0 32.6727 0C31.0763 0 29.6844 1.08552 29.2953 2.63368L10.3013 9.33492H3.50098C1.79833 9.33164 0.341624 10.5569 0.053155 12.2349C-0.235314 13.913 0.728392 15.5544 2.33439 16.1201V51.5485C0.940984 52.0411 0.00721866 53.3559 0.00106647 54.8338C-0.00563258 55.7577 0.362268 56.645 1.02069 57.293C1.67159 57.9626 2.56708 58.3383 3.50098 58.3337H31.5003V60.8816C29.8932 61.4498 28.9292 63.0932 29.2174 64.7732C29.5056 66.4533 30.9623 67.6813 32.6669 67.6813C34.3714 67.6813 35.8281 66.4533 36.1163 64.7732C36.4045 63.0932 35.4405 61.4498 33.8335 60.8816V58.3337H44.3332V65.9169C44.3332 68.172 46.1613 70.0001 48.4165 70.0001H65.916C68.1711 70.0001 69.9993 68.172 69.9993 65.9169V56.2337C69.9415 51.9178 67.0204 48.1667 62.8502 47.0534ZM32.6669 65.3335C32.0225 65.3335 31.5003 64.8112 31.5003 64.1669C31.5003 63.5226 32.0227 63.0003 32.6669 63.0003C33.3112 63.0003 33.8335 63.5227 33.8335 64.1669C33.8335 64.8111 33.3112 65.3335 32.6669 65.3335ZM64.1661 39.6674C64.1661 43.5333 61.0321 46.6672 57.1662 46.6672C53.3003 46.6672 50.1664 43.5333 50.1664 39.6674C50.1664 35.8015 53.3003 32.6676 57.1662 32.6676C61.0306 32.6715 64.1622 35.8031 64.1661 39.6674ZM57.1662 30.3344C53.1698 30.3291 49.6146 32.8718 48.3283 36.6556C47.0419 40.4393 48.3108 44.622 51.4823 47.0536C49.1043 47.7158 47.0593 49.2424 45.7483 51.334H4.66757V16.3349H60.6661V31.0217C59.5551 30.568 58.3665 30.3347 57.1662 30.3344ZM32.6669 2.3351C33.3112 2.3351 33.8335 2.85749 33.8335 3.50169C33.8335 4.14589 33.3111 4.66828 32.6669 4.66828C32.0225 4.66828 31.5003 4.14589 31.5003 3.50169C31.5003 2.85749 32.0225 2.3351 32.6669 2.3351ZM29.5298 5.01827C30.1071 6.22697 31.3275 6.99641 32.6669 6.99641C34.0063 6.99641 35.2266 6.22697 35.8039 5.01827L48.0222 9.33478H17.3117L29.5298 5.01827ZM3.50098 11.6681H61.8329C62.4772 11.6681 62.9995 12.1905 62.9995 12.8347C62.9995 13.479 62.4772 14.0013 61.8329 14.0013H3.50098C2.85664 14.0013 2.33439 13.4789 2.33439 12.8347C2.33439 12.1905 2.85664 11.6681 3.50098 11.6681ZM2.6703 55.6434C2.45264 55.4307 2.33124 55.1381 2.33425 54.8338C2.33425 54.1894 2.85664 53.6672 3.50084 53.6672H44.7064C44.4866 54.4262 44.365 55.2104 44.3448 56.0005H3.50098C3.18667 56.0015 2.8859 55.8721 2.6703 55.6434ZM67.666 65.9167C67.666 66.8832 66.8825 67.6667 65.916 67.6667C64.9496 67.6667 64.1661 66.8832 64.1661 65.9167V56.0004C64.1661 55.356 63.6438 54.8338 62.9995 54.8338C62.3551 54.8338 61.8329 55.3562 61.8329 56.0004V65.9167C61.8363 66.5233 61.9763 67.1215 62.2423 67.6667H52.0926C52.358 67.1213 52.497 66.5232 52.4997 65.9167V56.0004C52.4997 55.356 51.9773 54.8338 51.3331 54.8338C50.6889 54.8338 50.1665 55.3562 50.1665 56.0004V65.9167C50.1665 66.8832 49.383 67.6667 48.4166 67.6667C47.4502 67.6667 46.6666 66.8832 46.6666 65.9167V56.2337C46.7697 52.1453 50.1609 48.9106 54.2498 49.0005H60.0831C64.1719 48.9106 67.563 52.1451 67.6662 56.2337V65.9167H67.666Z" fill="white"/>
<path d="M40.3595 21.1016L33.7318 24.0461C28.428 17.7246 19.0772 16.7228 12.5546 21.7775C6.03207 26.8321 4.66834 36.137 9.46623 42.8508C14.2641 49.5646 23.5091 51.2882 30.4038 46.7543C37.2986 42.2205 39.3795 33.0494 35.1166 25.9838L41.2998 23.234C41.6807 23.0648 41.9425 22.7052 41.9864 22.2907C42.0303 21.8762 41.8498 21.4697 41.5127 21.2245C41.1757 20.9792 40.7334 20.9323 40.3524 21.1016H40.3595ZM34.9405 32.6675H30.2401C29.72 29.0907 26.9105 26.2812 23.3337 25.7611V21.0607C29.4926 21.6305 34.3707 26.5087 34.9405 32.6675ZM16.3338 33.8343C16.3338 30.6127 18.9455 28.001 22.1671 28.001C25.3886 28.001 28.0003 30.6127 28.0003 33.8343C28.0003 37.0558 25.3886 39.6675 22.1671 39.6675C18.947 39.6635 16.3377 37.0542 16.3338 33.8343ZM21.0003 21.0607V25.7611C18.1497 26.1651 15.7244 28.0449 14.6222 30.7047C13.52 33.3645 13.9046 36.4088 15.6339 38.7108L12.3089 42.0357C9.25637 38.3751 8.48707 33.3231 10.3117 28.9198C12.1363 24.5164 16.2533 21.4894 21.0003 21.0607ZM22.1669 46.6672C19.1669 46.6688 16.2619 45.6149 13.9609 43.6899L17.2858 40.365C19.5875 42.0967 22.633 42.4829 25.2943 41.3809C27.9556 40.279 29.8364 37.8527 30.2401 35.0009H34.9405C34.3321 41.6038 28.7978 46.6584 22.1669 46.6672Z" fill="white"/>
<path d="M54.8327 21.0012H45.4996C44.8553 21.0012 44.333 21.5235 44.333 22.1678C44.333 22.8122 44.8553 23.3344 45.4996 23.3344H54.8327C55.4771 23.3344 55.9993 22.812 55.9993 22.1678C55.9993 21.5236 55.4769 21.0012 54.8327 21.0012Z" fill="white"/>
<path d="M50.1661 25.6677H45.4996C44.8553 25.6677 44.333 26.1901 44.333 26.8343C44.333 27.4787 44.8553 28.0009 45.4996 28.0009H50.1661C50.8104 28.0009 51.3327 27.4785 51.3327 26.8343C51.3328 26.1901 50.8104 25.6677 50.1661 25.6677Z" fill="white"/>
</g>
<defs>
<clipPath id="clip0_138_196">
<rect width="70" height="70" fill="white"/>
</clipPath>
</defs>
</svg>
