<svg width="67" height="67" viewBox="0 0 67 67" fill="none" xmlns="http://www.w3.org/2000/svg">
<path fill-rule="evenodd" clip-rule="evenodd" d="M44.6667 9.05249H22.3333C14.6244 9.05249 8.375 15.3019 8.375 23.0108V45.3442C8.375 53.0531 14.6244 59.3025 22.3333 59.3025H44.6667C52.3756 59.3025 58.625 53.0531 58.625 45.3442V23.0108C58.625 15.3019 52.3756 9.05249 44.6667 9.05249ZM53.7396 45.3442C53.7242 50.3485 49.671 54.4017 44.6667 54.4171H22.3333C17.3289 54.4017 13.2757 50.3485 13.2604 45.3442V23.0108C13.2757 18.0063 17.3289 13.9532 22.3333 13.9379H44.6667C49.671 13.9532 53.7242 18.0063 53.7396 23.0108V45.3442ZM46.7604 23.7087C48.3023 23.7087 49.5521 22.4589 49.5521 20.9171C49.5521 19.3753 48.3023 18.1254 46.7604 18.1254C45.2186 18.1254 43.9688 19.3753 43.9688 20.9171C43.9688 22.4589 45.2186 23.7087 46.7604 23.7087ZM33.5 21.615C26.5619 21.615 20.9375 27.2394 20.9375 34.1775C20.9375 41.1156 26.5619 46.74 33.5 46.74C40.4381 46.74 46.0625 41.1156 46.0625 34.1775C46.07 30.8434 44.7487 27.6438 42.3912 25.2863C40.0336 22.9287 36.8341 21.6076 33.5 21.615ZM25.8229 34.1775C25.8229 38.4175 29.26 41.8546 33.5 41.8546C37.74 41.8546 41.1771 38.4175 41.1771 34.1775C41.1771 29.9375 37.74 26.5004 33.5 26.5004C29.26 26.5004 25.8229 29.9375 25.8229 34.1775Z" fill="white"/>
</svg>
