<svg width="67" height="67" viewBox="0 0 67 67" fill="none" xmlns="http://www.w3.org/2000/svg">
<path fill-rule="evenodd" clip-rule="evenodd" d="M12.5625 9.05249C10.2498 9.05249 8.375 10.9273 8.375 13.24V55.115C8.375 57.4276 10.2498 59.3025 12.5625 59.3025H54.4375C56.7501 59.3025 58.625 57.4276 58.625 55.115V13.24C58.625 10.9273 56.7501 9.05249 54.4375 9.05249H12.5625ZM23.7871 20.2268C23.8028 22.8963 21.8046 24.5412 19.4334 24.5294C17.1997 24.5176 15.2525 22.7393 15.2642 20.2307C15.276 17.8713 17.1408 15.9751 19.563 16.0301C22.0205 16.0851 23.8028 17.887 23.7871 20.2268ZM34.2808 27.9291H27.2459H27.2419V51.8253H34.6772V51.2678C34.6772 50.2072 34.6764 49.1464 34.6756 48.0853C34.6733 45.2551 34.6708 42.4218 34.6853 39.5925C34.6892 38.9055 34.7205 38.1911 34.8972 37.5353C35.5605 35.0856 37.7632 33.5036 40.2207 33.8925C41.7988 34.1395 42.8429 35.0544 43.2826 36.5423C43.5536 37.4725 43.6753 38.4736 43.6871 39.4434C43.7189 42.368 43.7144 45.2925 43.71 48.2173C43.7083 49.2497 43.7066 50.2826 43.7066 51.315V51.8214H51.1657V51.2483C51.1657 49.9864 51.1651 48.7249 51.1643 47.4633C51.1629 44.3101 51.1612 41.1569 51.1696 38.0026C51.1735 36.5775 51.0205 35.1722 50.671 33.7942C50.1489 31.7448 49.0694 30.0489 47.3146 28.8242C46.07 27.9526 44.7038 27.3912 43.1768 27.3284C43.0028 27.3212 42.8275 27.3117 42.6514 27.3022C41.8705 27.26 41.0769 27.2171 40.3304 27.3677C38.1947 27.7956 36.3185 28.7731 34.9011 30.4964C34.7364 30.694 34.5753 30.8948 34.335 31.1943L34.2808 31.2622V27.9291ZM15.8612 51.8331H23.2613V27.9446H15.8612V51.8331Z" fill="white"/>
</svg>
