<svg width="83" height="83" viewBox="0 0 83 83" fill="none" xmlns="http://www.w3.org/2000/svg">
<path d="M74.6758 24.9105C74.2819 23.449 73.512 22.1162 72.443 21.0446C71.3739 19.9731 70.0428 19.2003 68.5822 18.8031C63.1664 17.316 41.5 17.2918 41.5 17.2918C41.5 17.2918 19.837 17.2676 14.4178 18.6889C12.9581 19.1044 11.6297 19.8882 10.5602 20.965C9.49072 22.0418 8.71597 23.3754 8.31036 24.8379C6.88206 30.2536 6.86823 41.4863 6.86823 41.4863C6.86823 41.4863 6.8544 52.7743 8.27231 58.1347C9.06773 61.0985 11.4021 63.4398 14.3694 64.2387C19.8404 65.7257 41.4481 65.7499 41.4481 65.7499C41.4481 65.7499 63.1146 65.7741 68.5303 64.3562C69.9914 63.9597 71.3238 63.1886 72.3955 62.1193C73.4673 61.05 74.2413 59.7194 74.6412 58.2592C76.0729 52.8469 76.0833 41.6177 76.0833 41.6177C76.0833 41.6177 76.1525 30.3262 74.6758 24.9105ZM34.5695 51.8924L34.5868 31.1424L52.5943 41.5347L34.5695 51.8924Z" fill="white"/>
</svg>
