<svg width="234" height="234" viewBox="0 0 234 234" fill="none" xmlns="http://www.w3.org/2000/svg">
<path d="M108.614 94.3294C107.448 94.7188 106.399 95.3861 105.534 96.2563C109.172 97.4098 112.192 100.141 113.693 103.901C114.256 105.307 113.572 106.903 112.165 107.465C110.762 108.024 109.163 107.344 108.602 105.934C107.426 102.995 104.658 101.134 101.569 101.134C101.549 101.134 101.53 101.134 101.512 101.134C101.274 101.178 101.028 101.192 100.786 101.172C97.3842 101.516 94.5853 103.971 93.9748 107.159C93.2673 110.002 93.7993 112.488 95.4171 114.307C97.9162 112.148 101.282 111.02 104.806 111.483C106.309 111.678 107.368 113.053 107.172 114.556C106.976 116.057 105.602 117.117 104.099 116.92C100.589 116.466 97.4116 118.896 96.7937 122.444C96.3988 124.188 96.7498 125.925 97.6273 127.344C97.7352 125.727 98.0716 124.115 98.6438 122.548C99.0515 121.437 100.101 120.746 101.22 120.746C101.532 120.746 101.85 120.799 102.161 120.912C103.583 121.433 104.316 123.007 103.797 124.43C102.368 128.342 103.097 132.682 105.746 136.04C107.786 138.491 110.92 139.912 114.24 139.963V94.6219C112.453 93.7993 110.43 93.6786 108.614 94.3294Z" fill="#7416CB"/>
<path d="M133.177 101.172C132.927 101.19 132.685 101.178 132.451 101.134C132.433 101.134 132.415 101.134 132.397 101.134C129.307 101.134 126.534 102.997 125.351 105.94C124.786 107.346 123.179 108.022 121.786 107.463C120.378 106.898 119.698 105.302 120.263 103.896C121.77 100.143 124.793 97.4134 128.429 96.2581C127.57 95.3897 126.536 94.7279 125.398 94.3495C123.539 93.6841 121.508 93.7992 119.726 94.6219V139.965C123.042 139.912 126.179 138.48 128.259 135.985C130.938 132.594 131.702 128.183 130.206 124.528C129.634 123.126 130.305 121.525 131.707 120.951C133.113 120.378 134.711 121.051 135.283 122.451C135.912 123.993 136.281 125.612 136.398 127.259C137.234 125.881 137.563 124.221 137.19 122.587C136.543 118.894 133.343 116.47 129.855 116.92C128.355 117.113 126.98 116.057 126.782 114.556C126.587 113.053 127.645 111.678 129.148 111.483C132.649 111.027 136.024 112.144 138.526 114.318C140.157 112.499 140.764 109.991 140.201 107.183C139.435 103.965 136.609 101.518 133.177 101.172Z" fill="#7416CB"/>
<path d="M114.24 46.1492V70.5656H119.724V46.1784C124.002 45.0102 127.066 41.1675 127.066 36.4692C127.066 31.0032 122.45 26.3835 116.982 26.3835C111.611 26.3835 106.896 31.0964 106.896 36.4692C106.898 40.9884 110.057 44.9188 114.24 46.1492ZM116.982 31.8697C119.474 31.8697 121.581 33.9757 121.581 36.4711C121.581 39.0341 119.583 41.0414 117.027 41.0652C117.011 41.0652 116.998 41.0615 116.984 41.0615C116.969 41.0615 116.954 41.0652 116.942 41.0652C114.466 41.0396 112.384 38.9482 112.384 36.4711C112.382 34.1055 114.616 31.8697 116.982 31.8697Z" fill="#7416CB"/>
<path d="M197.522 106.925C192.82 106.925 188.973 109.993 187.809 114.276H163.416V119.76H187.843C189.063 123.866 192.937 126.879 197.522 126.879C202.96 126.879 207.384 122.453 207.384 117.011C207.382 111.448 202.96 106.925 197.522 106.925ZM197.522 121.393C194.988 121.393 192.929 119.433 192.922 117.022C192.922 117.02 192.922 117.02 192.922 117.018C192.922 117.015 192.92 117.009 192.92 117.005C192.924 114.428 194.942 112.41 197.522 112.41C199.935 112.41 201.9 114.473 201.9 117.011C201.898 119.386 199.894 121.393 197.522 121.393Z" fill="#7416CB"/>
<path d="M187.152 145.362C186.315 145.362 185.505 145.473 184.725 145.663L178.507 135.058C178.014 134.219 177.114 133.704 176.142 133.704H157.937V100.318H176.142C177.114 100.318 178.014 99.8028 178.507 98.9637L184.727 88.3569C185.505 88.547 186.315 88.6586 187.152 88.6586C192.595 88.6586 197.019 84.2308 197.019 78.7903C197.019 73.231 192.593 68.7101 187.152 68.7101C181.496 68.7101 177.067 73.1378 177.067 78.7903C177.067 81.4667 178.167 83.8945 179.941 85.6751L174.57 94.8358H157.935V82.8926C157.935 78.9914 154.996 76.0481 151.096 76.0481H139.153V59.4177L148.314 54.0485C150.093 55.8199 152.52 56.9168 155.195 56.9168C160.849 56.9168 165.279 52.4891 165.279 46.8365C165.279 41.3942 160.754 36.9683 155.195 36.9683C149.753 36.9683 145.327 41.3942 145.327 46.8365C145.327 47.6757 145.44 48.4855 145.628 49.2661L135.025 55.4799C134.186 55.9717 133.671 56.8729 133.671 57.8455V76.0481H100.285V57.8455C100.285 56.8729 99.7699 55.9717 98.9308 55.4799L88.3259 49.2625C88.516 48.4837 88.6275 47.6738 88.6275 46.8365C88.6275 41.3942 84.2016 36.9683 78.7611 36.9683C73.2 36.9683 68.6754 41.3942 68.6754 46.8365C68.6754 52.4891 73.1049 56.9168 78.7611 56.9168C81.4375 56.9168 83.8634 55.8181 85.644 54.0467L94.8029 59.4177V76.0481H82.8616C78.9604 76.0481 76.0208 78.9914 76.0208 82.8926V94.834H59.3848L54.0376 85.7135C55.7962 83.9292 56.8876 81.4868 56.8876 78.7903C56.8876 73.231 52.4617 68.7101 47.0212 68.7101C41.3668 68.7101 36.9373 73.1378 36.9373 78.7903C36.9373 84.2327 41.4619 88.6586 47.0212 88.6586C47.789 88.6586 48.5276 88.5507 49.2461 88.3843L55.4507 98.9637C55.9443 99.8028 56.8437 100.318 57.8163 100.318H76.0226V133.702H57.8163C56.8437 133.702 55.9443 134.217 55.4507 135.056L49.2461 145.638C48.5276 145.471 47.789 145.363 47.0212 145.363C41.4619 145.363 36.9373 149.787 36.9373 155.228C36.9373 160.882 41.3668 165.312 47.0212 165.312C52.4636 165.312 56.8876 160.789 56.8876 155.228C56.8876 152.531 55.7962 150.089 54.0357 148.307L59.3848 139.186H76.0208V151.124C76.0208 154.897 79.0902 157.968 82.8616 157.968H94.8029V174.602L85.6806 179.948C83.8982 178.193 81.4558 177.101 78.763 177.101C73.2018 177.101 68.6772 181.525 68.6772 186.966C68.6772 192.62 73.1067 197.052 78.763 197.052C84.2053 197.052 88.6293 192.527 88.6293 186.966C88.6293 186.196 88.5197 185.456 88.3533 184.738L98.9327 178.536C99.7718 178.045 100.287 177.143 100.287 176.171V157.968H133.671V176.173C133.671 177.147 134.186 178.047 135.027 178.538L145.603 184.734C145.435 185.454 145.327 186.195 145.327 186.966C145.327 192.527 149.755 197.052 155.195 197.052C160.849 197.052 165.279 192.622 165.279 186.966C165.279 181.525 160.754 177.101 155.195 177.101C152.5 177.101 150.06 178.191 148.279 179.946L139.155 174.601V157.968H151.098C154.87 157.968 157.937 154.897 157.937 151.124V139.188H174.571L179.942 148.345C178.167 150.124 177.07 152.55 177.07 155.226C177.07 160.88 181.5 165.31 187.156 165.31C192.598 165.31 197.023 160.787 197.023 155.226C197.019 149.787 192.595 145.362 187.152 145.362ZM187.152 74.1926C189.569 74.1926 191.535 76.2547 191.535 78.7885C191.535 81.1651 189.527 83.1724 187.152 83.1724C184.615 83.1724 182.551 81.2053 182.551 78.7885C182.551 76.2109 184.573 74.1926 187.152 74.1926ZM155.195 42.4527C157.731 42.4527 159.795 44.4198 159.795 46.8365C159.795 49.4142 157.775 51.4324 155.195 51.4324C152.778 51.4324 150.811 49.3703 150.811 46.8365C150.809 44.46 152.818 42.4527 155.195 42.4527ZM78.7611 51.4324C76.1816 51.4324 74.1597 49.4142 74.1597 46.8365C74.1597 44.4198 76.2237 42.4527 78.7611 42.4527C81.1377 42.4527 83.1431 44.46 83.1431 46.8365C83.1431 49.3703 81.1779 51.4324 78.7611 51.4324ZM42.4198 78.7885C42.4198 76.2109 44.4399 74.1926 47.0194 74.1926C49.4362 74.1926 51.4014 76.2547 51.4014 78.7885C51.4014 81.1651 49.3941 83.1724 47.0194 83.1724C44.4838 83.1742 42.4198 81.2053 42.4198 78.7885ZM47.0194 159.826C44.4417 159.826 42.4198 157.806 42.4198 155.226C42.4198 152.811 44.4838 150.846 47.0194 150.846C49.396 150.846 51.4014 152.851 51.4014 155.226C51.4014 157.762 49.4362 159.826 47.0194 159.826ZM78.7611 191.567C76.1816 191.567 74.1597 189.547 74.1597 186.966C74.1597 184.551 76.2237 182.586 78.7611 182.586C81.1377 182.586 83.1431 184.591 83.1431 186.966C83.1431 189.503 81.1779 191.567 78.7611 191.567ZM155.195 182.586C157.731 182.586 159.795 184.551 159.795 186.966C159.795 189.545 157.775 191.567 155.195 191.567C152.778 191.567 150.811 189.503 150.811 186.966C150.809 184.593 152.818 182.586 155.195 182.586ZM135.042 135.188C134.407 136.68 133.563 138.113 132.515 139.438C129.307 143.29 124.523 145.449 119.517 145.449C118.678 145.449 117.83 145.374 116.984 145.25C116.133 145.374 115.283 145.449 114.441 145.449C109.432 145.449 104.653 143.299 101.483 139.493C100.426 138.153 99.578 136.709 98.9473 135.201C93.43 133.049 90.1065 127.131 91.4172 121.367C91.5726 120.472 91.8249 119.616 92.1595 118.808C88.7463 115.62 87.3954 110.883 88.6184 105.98C89.5836 100.92 93.834 96.8559 99.1246 95.8742C100.743 92.7024 103.521 90.2454 106.821 89.1467C110.106 87.9694 113.797 88.2582 116.98 89.8706C120.157 88.2582 123.855 87.9767 127.185 89.1649C130.488 90.2655 133.215 92.6695 134.833 95.8723C140.084 96.8376 144.318 100.786 145.555 106.009C146.572 111.073 145.162 115.693 141.782 118.823C142.135 119.665 142.4 120.563 142.563 121.504C143.853 127.128 140.546 133.027 135.042 135.188ZM187.152 159.826C184.573 159.826 182.551 157.806 182.551 155.226C182.551 152.811 184.615 150.846 187.152 150.846C189.529 150.846 191.535 152.851 191.535 155.226C191.535 157.762 189.569 159.826 187.152 159.826Z" fill="#7416CB"/>
<path d="M119.724 187.838V163.453H114.24V187.867C110.057 189.098 106.896 193.028 106.896 197.547C106.896 202.896 111.514 207.415 116.982 207.415C122.541 207.415 127.066 202.989 127.066 197.547C127.066 192.851 124.002 189.006 119.724 187.838ZM116.982 201.933C114.53 201.933 112.38 199.883 112.38 197.549C112.38 195.055 114.486 192.948 116.982 192.948C119.559 192.948 121.581 194.968 121.581 197.549C121.581 199.966 119.517 201.933 116.982 201.933Z" fill="#7416CB"/>
<path d="M46.1181 119.76H70.5291V114.276H46.1529C44.9865 109.993 41.142 106.925 36.44 106.925C30.9977 106.925 26.5736 111.45 26.5736 117.011C26.5736 122.453 30.9995 126.879 36.44 126.879C41.0231 126.877 44.8988 123.866 46.1181 119.76ZM36.4419 121.393C34.0653 121.393 32.0598 119.386 32.0598 117.009C32.0598 114.472 34.0251 112.408 36.4419 112.408C39.0195 112.408 41.0414 114.428 41.0414 117.009C41.0396 119.428 38.9756 121.393 36.4419 121.393Z" fill="#7416CB"/>
</svg>
