<svg width="193" height="193" viewBox="0 0 193 193" fill="none" xmlns="http://www.w3.org/2000/svg">
<path d="M102.041 178.291C102.041 179.332 101.197 180.176 100.156 180.176H84.5355C83.4951 180.176 82.6507 179.332 82.6507 178.291C82.6507 177.251 83.4951 176.407 84.5355 176.407H100.156C101.197 176.407 102.041 177.251 102.041 178.291ZM183.38 76.4838V109.2C183.38 116.445 177.485 122.34 170.24 122.34H145.278V170.488C145.278 180.613 137.041 188.854 126.913 188.854H55.1369C45.012 188.854 36.7718 180.617 36.7718 170.488V147.996H34.6759C28.4449 147.996 23.3711 142.926 23.3711 136.691V109.316C23.3711 103.085 28.4411 98.0116 34.6759 98.0116H36.7718V75.809H21.8972C15.1271 75.809 9.61984 70.3018 9.61984 63.5317V33.3189C9.61984 26.5488 15.1271 21.0415 21.8972 21.0415H36.8359C37.5898 11.6026 45.5058 4.14648 55.1369 4.14648H126.913C137.038 4.14648 145.278 12.3829 145.278 22.5116V63.347H170.24C177.485 63.347 183.38 69.2387 183.38 76.4838ZM40.6167 21.0415H45.5586C46.4482 16.3296 50.5909 12.7523 55.5591 12.7523H126.498C132.111 12.7523 136.676 17.3172 136.676 22.9301V63.3432H141.512V22.5116C141.512 14.4637 134.964 7.91602 126.916 7.91602H55.1369C47.5866 7.91602 41.3555 13.6796 40.6167 21.0415ZM92.7682 109.203V76.4838C92.7682 69.2387 98.6637 63.3432 105.909 63.3432H132.906V22.9301C132.906 19.398 130.03 16.5219 126.498 16.5219H55.5591C52.683 16.5219 50.2441 18.4255 49.4374 21.0415H67.3879C74.158 21.0415 79.6653 26.5488 79.6653 33.3189V63.5317C79.6653 70.3018 74.158 75.809 67.3879 75.809H60.4821V90.3029C60.4821 91.0304 60.0599 91.6976 59.404 92.0067C59.1477 92.1273 58.8725 92.1877 58.6011 92.1877C58.1714 92.1877 57.7492 92.0406 57.4024 91.7579L49.1547 84.9765V98.0116H75.9033C82.1343 98.0116 87.2081 103.082 87.2081 109.316V136.695C87.2081 142.926 82.1381 147.999 75.9033 147.999H69.8193V160.955C69.8193 161.683 69.3971 162.35 68.7412 162.659C68.4848 162.78 68.2097 162.84 67.9383 162.84C67.5085 162.84 67.0863 162.693 66.7395 162.41L49.215 147.996H49.1547V161.321C49.1547 164.853 52.0308 167.729 55.5629 167.729H126.502C130.034 167.729 132.91 164.853 132.91 161.321V126.257L116.629 139.646C116.286 139.929 115.86 140.076 115.431 140.076C115.159 140.076 114.884 140.015 114.628 139.895C113.968 139.582 113.55 138.919 113.55 138.191V122.34H105.913C98.6599 122.34 92.7682 116.448 92.7682 109.203ZM21.8972 72.0395H38.6754C39.1127 72.0395 39.5348 72.1903 39.8741 72.4692L56.7088 86.311V73.9243C56.7088 72.8839 57.5532 72.0395 58.5936 72.0395H67.3841C72.0772 72.0395 75.892 68.221 75.892 63.5317V33.3189C75.892 28.6258 72.0772 24.8111 67.3841 24.8111H21.8972C17.2041 24.8111 13.3894 28.6258 13.3894 33.3189V63.5317C13.3894 68.221 17.2079 72.0395 21.8972 72.0395ZM40.5413 98.0116H45.3776V81.8742L40.5413 77.8974V98.0116ZM34.6759 144.23H49.8822C50.3195 144.23 50.7417 144.381 51.0809 144.66L66.046 156.967V146.115C66.046 145.074 66.8903 144.23 67.9307 144.23H75.8995C80.0535 144.23 83.4348 140.849 83.4348 136.695V109.316C83.4348 105.162 80.0535 101.781 75.8995 101.781H34.6759C30.5219 101.781 27.1406 105.162 27.1406 109.316V136.695C27.1444 140.849 30.5257 144.23 34.6759 144.23ZM141.508 122.34H137.667L136.672 123.158V161.321C136.672 166.934 132.107 171.499 126.494 171.499H55.5591C49.9463 171.499 45.3814 166.934 45.3814 161.321V147.996H40.5451V170.488C40.5451 178.536 47.0928 185.084 55.1407 185.084H126.916C134.964 185.084 141.512 178.536 141.512 170.488V122.34H141.508ZM179.611 76.4838C179.611 71.3158 175.408 67.1127 170.24 67.1127H105.905C100.737 67.1127 96.5339 71.3158 96.5339 76.4838V109.2C96.5339 114.368 100.737 118.571 105.905 118.571H115.427C116.467 118.571 117.312 119.415 117.312 120.455V134.199L135.794 118.997C136.129 118.718 136.555 118.567 136.992 118.567H170.24C175.408 118.567 179.611 114.364 179.611 109.196V76.4838ZM165.396 103.342H136.992C135.952 103.342 135.108 104.186 135.108 105.226C135.108 106.267 135.952 107.111 136.992 107.111H165.396C166.436 107.111 167.28 106.267 167.28 105.226C167.28 104.186 166.436 103.342 165.396 103.342ZM165.396 78.5759H110.753C109.712 78.5759 108.868 79.4202 108.868 80.4606C108.868 81.501 109.712 82.3454 110.753 82.3454H165.396C166.436 82.3454 167.28 81.501 167.28 80.4606C167.28 79.4202 166.436 78.5759 165.396 78.5759ZM165.396 90.9588H110.753C109.712 90.9588 108.868 91.8032 108.868 92.8436C108.868 93.8839 109.712 94.7283 110.753 94.7283H165.396C166.436 94.7283 167.28 93.8839 167.28 92.8436C167.28 91.8032 166.436 90.9588 165.396 90.9588ZM55.2877 139.311C50.9942 139.311 37.6501 127.761 37.6501 117.579C37.6501 111.578 42.2074 106.697 47.809 106.697C50.6851 106.697 53.3916 108.016 55.2877 110.217C57.1838 108.016 59.8903 106.697 62.7665 106.697C68.368 106.697 72.9254 111.578 72.9254 117.579C72.9254 127.761 59.5812 139.311 55.2877 139.311ZM55.2877 135.537C57.8095 135.092 69.1558 125.593 69.1558 117.579C69.1558 113.659 66.291 110.466 62.7665 110.466C60.3351 110.466 58.0772 112.042 57.0142 114.481C56.7164 115.167 56.0378 115.612 55.2877 115.612C54.5376 115.612 53.8591 115.167 53.5613 114.481C52.4983 112.042 50.2403 110.466 47.809 110.466C44.2845 110.466 41.4196 113.655 41.4196 117.579C41.4196 125.593 52.7659 135.092 55.2877 135.537ZM37.0469 52.8488C35.6748 54.7298 33.4621 55.9587 30.9629 55.9587C26.8089 55.9587 23.4314 52.5812 23.4314 48.4272C23.4314 44.2731 26.8089 40.8956 30.9629 40.8956C33.4621 40.8956 35.6748 42.1245 37.0469 44.0055L50.8472 38.5661C50.8095 38.2645 50.7869 37.9592 50.7869 37.6501C50.7869 33.4961 54.1644 30.1186 58.3184 30.1186C62.4724 30.1186 65.8499 33.4961 65.8499 37.6501C65.8499 41.8041 62.4724 45.1816 58.3184 45.1816C55.8192 45.1816 53.6065 43.9527 52.2344 42.0717L38.4341 47.5112C38.4718 47.8127 38.4945 48.1181 38.4945 48.4309C38.4945 48.7438 38.4681 49.0491 38.4341 49.3507L52.2344 54.7901C53.6065 52.9091 55.8192 51.6803 58.3184 51.6803C62.4724 51.6803 65.8499 55.0578 65.8499 59.2118C65.8499 63.3658 62.4724 66.7433 58.3184 66.7433C54.1644 66.7433 50.7869 63.3658 50.7869 59.2118C50.7869 58.8989 50.8133 58.5936 50.8472 58.292L37.0469 52.8488ZM54.5564 59.2043C54.5564 61.2775 56.2452 62.9662 58.3184 62.9662C60.3917 62.9662 62.0804 61.2775 62.0804 59.2043C62.0804 57.131 60.3917 55.4423 58.3184 55.4423C56.2414 55.4423 54.5564 57.131 54.5564 59.2043ZM54.5564 37.6463C54.5564 39.7196 56.2452 41.4083 58.3184 41.4083C60.3917 41.4083 62.0804 39.7196 62.0804 37.6463C62.0804 35.5731 60.3917 33.8843 58.3184 33.8843C56.2414 33.8843 54.5564 35.5693 54.5564 37.6463ZM34.7249 48.4234C34.7249 46.3502 33.0362 44.6614 30.9629 44.6614C28.8897 44.6614 27.2009 46.3502 27.2009 48.4234C27.2009 50.4966 28.8897 52.1854 30.9629 52.1854C33.0399 52.1854 34.7249 50.4966 34.7249 48.4234Z" fill="#7616CF"/>
</svg>
