<svg width="179" height="179" viewBox="0 0 179 179" fill="none" xmlns="http://www.w3.org/2000/svg">
<g clip-path="url(#clip0_16_7)">
<path d="M17.9 179H89.5C99.3818 178.99 107.39 170.982 107.4 161.1C107.4 159.452 106.064 158.117 104.417 158.117C102.769 158.117 101.433 159.452 101.433 161.1C101.433 167.691 96.0906 173.033 89.5 173.033H17.9C11.3094 173.033 5.96667 167.691 5.96667 161.1V17.9C5.96667 11.3094 11.3094 5.96667 17.9 5.96667H19.0396L25.5165 18.9203C27.0235 21.9601 30.1279 23.8785 33.5207 23.8667H73.8793C77.2721 23.8785 80.3765 21.9601 81.8836 18.9203L88.3604 5.96667H89.5C96.0906 5.96667 101.433 11.3094 101.433 17.9V23.8667C101.433 25.5143 102.769 26.85 104.417 26.85C106.064 26.85 107.4 25.5143 107.4 23.8667V17.9C107.39 8.01819 99.3818 0.00986702 89.5 0H17.9C8.01819 0.00986702 0.00986702 8.01819 0 17.9V161.1C0.00986702 170.982 8.01819 178.99 17.9 179ZM76.5464 16.2502C76.0414 17.2608 75.0089 17.8994 73.8793 17.9H33.5207C32.391 17.8994 31.3586 17.2608 30.8536 16.2502L25.7104 5.96667H81.6896L76.5464 16.2502Z" fill="#7616CF"/>
<path d="M77.5667 167.067C79.2143 167.067 80.55 165.731 80.55 164.083C80.55 162.436 79.2143 161.1 77.5667 161.1H29.8333C28.1857 161.1 26.85 162.436 26.85 164.083C26.85 165.731 28.1857 167.067 29.8333 167.067H77.5667Z" fill="#7616CF"/>
<path d="M161.1 32.8167H77.5667C67.6849 32.8265 59.6765 40.8348 59.6667 50.7167V69.81L27.0081 87.2297C25.0722 88.2693 23.8644 90.2889 23.8644 92.4863C23.8644 94.6837 25.0722 96.7033 27.0081 97.7429L59.6667 115.157V134.25C59.6765 144.132 67.6849 152.14 77.5667 152.15H161.1C170.982 152.14 178.99 144.132 179 134.25V50.7167C178.99 40.8348 170.982 32.8265 161.1 32.8167ZM173.033 134.25C173.033 140.841 167.691 146.183 161.1 146.183H77.5667C70.9761 146.183 65.6333 140.841 65.6333 134.25V113.367C65.6332 112.266 65.0265 111.254 64.0551 110.735L29.8333 92.4833L64.0641 74.2253C65.0301 73.7053 65.6328 72.6971 65.6333 71.6V50.7167C65.6333 44.1261 70.9761 38.7833 77.5667 38.7833H161.1C167.691 38.7833 173.033 44.1261 173.033 50.7167V134.25Z" fill="#7616CF"/>
<path d="M152.15 50.7167H86.5167C81.5737 50.7167 77.5667 54.7237 77.5667 59.6667V125.3C77.5667 130.243 81.5737 134.25 86.5167 134.25H152.15C157.093 134.25 161.1 130.243 161.1 125.3V59.6667C161.1 54.7237 157.093 50.7167 152.15 50.7167ZM105.652 80.55L114.602 71.6H133.015L124.065 80.55H105.652ZM83.5333 80.55V71.6H106.165L97.2149 80.55H83.5333ZM124.065 56.6833L133.015 65.6333H114.602L105.652 56.6833H124.065ZM141.452 71.6H155.133V80.55H132.502L141.452 71.6ZM155.133 59.6667V65.6333H141.452L132.502 56.6833H152.15C153.798 56.6833 155.133 58.019 155.133 59.6667ZM86.5167 56.6833H97.2149L106.165 65.6333H83.5333V59.6667C83.5333 58.019 84.869 56.6833 86.5167 56.6833ZM152.15 128.283H86.5167C84.869 128.283 83.5333 126.948 83.5333 125.3V86.5167H155.133V125.3C155.133 126.948 153.798 128.283 152.15 128.283Z" fill="#7616CF"/>
<path d="M131.04 101.654L116.332 93.253C114.551 92.2218 112.352 92.2286 110.577 93.2709C108.577 94.4815 107.368 96.6611 107.4 98.9989V115.801C107.368 118.139 108.577 120.318 110.577 121.529C112.352 122.573 114.551 122.579 116.332 121.547L131.04 113.146C133.034 111.917 134.249 109.742 134.249 107.4C134.249 105.057 133.034 102.883 131.04 101.654ZM128.08 107.964L113.573 116.368C113.42 116.221 113.344 116.012 113.367 115.801V98.9989C113.367 98.7005 113.465 98.5394 113.432 98.4708L128.08 106.824C128.347 107.153 128.347 107.623 128.08 107.952V107.964Z" fill="#7616CF"/>
</g>
<defs>
<clipPath id="clip0_16_7">
<rect width="179" height="179" fill="white"/>
</clipPath>
</defs>
</svg>
